#!OML:ASF F:\VICON\USERDATA\INSTALL\rory3\rory3.ASF
:FULLY-SPECIFIED
:DEGREES
81
root -0.34716883526889847 17.94868573322157 33.50390034529179 -2.523114682217326 -2.466742959797702 -6.883575429969897
lfemur -24.83954808264055 2.355293275733421 -12.18954907249688
ltibia 45.08914945751095
lfoot -6.465793036090322 -3.2069716156969124
ltoes -14.326698147993447
rfemur -4.755538967031253 7.467477499928316 33.60750776205493
rtibia 26.994347233669647
rfoot -6.549315243060173 -8.05839680111847
rtoes 9.259560846291949
lowerback 9.617210548350693 1.9636456145803276 5.792493146128722
upperback 0.7274025881195811 3.3338683055798586 2.112337755956596
thorax -4.798079515280721 1.5432540228410003 -1.5920695538023324
lowerneck -16.049610893565013 -2.82467327279276 -1.768760136111546
upperneck 19.97074431464502 -3.540971764305077 0.5705504809241133
head 8.987441250662192 -1.694037824793983 0.09628336984677925
lclavicle -1.961795637861211e-15 8.983338961038647e-16
lhumerus -34.43269521189184 1.641430658814078 82.34548713039266
lradius 30.67703675617759
lwrist 7.971664467919275
lhand -27.70904723169872 22.356187707266137
lfingers 7.12502
lthumb -0.8502564298353799 52.51183013124569
rclavicle -1.9530152180703717e-15 9.069775903492698e-16
rhumerus -26.309624921479745 -13.494830789660185 -79.69152798339786
rradius 26.129601693539044
rwrist 2.689414335614436
rhand -18.114817838210993 23.594338118237626
rfingers 7.12502
rthumb 7.932250418973037 -6.316305797059759
82
root -0.33367529487247166 17.886245465373282 34.07823598784804 -1.996585357843365 -3.4014253185476804 -7.576198303986249
lfemur -25.802222930709178 1.4420560905206021 -11.23057881368853
ltibia 36.20564756783324
lfoot -5.1896670423902 -1.9458224915355489
ltoes -13.661357067712636
rfemur -2.2688709474035793 7.685452722245883 34.899453074937206
rtibia 25.456205086194164
rfoot -6.463148060756662 -8.362280793087988
rtoes 8.050810824828186
lowerback 9.492705211681953 2.2728446272483604 6.724023506957666
upperback 0.6988209866163685 3.819765674618892 2.1325854077458724
thorax -4.671694647901402 1.7675790076549982 -2.0012815802202977
lowerneck -16.18649311110068 -2.8214284981029523 -1.6605227821697452
upperneck 19.939790412077684 -3.5362340142352453 0.4841271361852306
head 8.98835348243493 -1.6968205823447002 0.03806719779283091
lclavicle -1.9604895238168074e-15 8.994963586748328e-16
lhumerus -34.54854738197133 2.4109694315743164 82.2125938160342
lradius 30.628047759525828
lwrist 7.07662241780006
lhand -27.440821327460434 22.52521442870223
lfingers 7.12502
lthumb -0.6310774140418487 52.60288526059958
rclavicle -1.952659364308469e-15 9.073053148452024e-16
rhumerus -26.211267957878643 -13.779142452699814 -79.6416659406451
rradius 26.19976620931739
rwrist 2.6258685640965505
rhand -18.20850999992232 24.145980848761972
rfingers 7.12502
rthumb 7.864214879868338 -5.786468390052263
83
root -0.3113493817651704 17.82644257014009 34.79069476974495 -1.371124314347906 -4.363335371197724 -7.913277476073269
lfemur -25.467226154463212 -0.6957132877516481 -9.965365904294348
ltibia 25.480502083072857
lfoot -4.899649389401301 -1.4683545182875393
ltoes -14.035769937944865
rfemur 0.5487871257298522 7.836308443887594 35.688392321752886
rtibia 23.468531634104473
rfoot -6.8905677884607615 -8.720802338316272
rtoes 6.711047607732425
lowerback 9.134975538697338 2.5830981691237382 7.261118393351849
upperback 0.6526305756359294 4.251276502800887 2.1437452523889005
thorax -4.496687034631313 1.9882887002694254 -2.2699994577454796
lowerneck -16.311117390237573 -2.823648717903557 -1.5738505339230764
upperneck 19.920802249655928 -3.545792312244523 0.4521048057355382
head 8.992489819697585 -1.7041104033701868 -0.001785362685375963
lclavicle -1.9575270727894065e-15 9.01983276366469e-16
lhumerus -34.913234457670676 2.9343946579213354 82.01933345119431
lradius 30.803633007272836
lwrist 6.328403232770096
lhand -27.187939609320345 22.66317818947324
lfingers 7.12502
lthumb -0.43071765291446923 52.69426520039085
rclavicle -1.9520557823752475e-15 9.078612811108837e-16
rhumerus -26.23240511643145 -14.123154352008605 -79.60156125861585
rradius 26.127030404396802
rwrist 2.7111128038377044
rhand -18.25913270002435 24.483309371277628
rfingers 7.12502
rthumb 7.825488378281644 -5.484225153831746
84
root -0.27261838546987954 17.78816951708421 35.28717528421102 -0.3878773946065701 -4.885759502081767 -8.294043656139117
lfemur -24.44232766878164 -3.6945123782520373 -8.25550571375058
ltibia 15.02443164059742
lfoot -5.386785874999771 -0.5513739448629866
ltoes -14.346109131258586
rfemur 3.49340371044444 7.705328850846797 36.166952887560655
rtibia 21.78482739039631
rfoot -7.077387988689227 -8.709020342072243
rtoes 5.839154286738322
lowerback 8.605823759349342 2.7552776845255114 7.685741759626326
upperback 0.5766360270762785 4.513948766633607 2.1362368827570304
thorax -4.363888650774821 2.12758590905658 -2.43174008955413
lowerneck -16.393539818094986 -2.832964169546846 -1.5161138849732927
upperneck 19.936810781813183 -3.569505368949475 0.47246445688800803
head 9.00385936556621 -1.7148783779545276 -0.024306393324102477
lclavicle -1.957978916362765e-15 9.02236263209254e-16
lhumerus -35.32392272115475 3.18773381992441 81.87006621851074
lradius 31.106714334803492
lwrist 6.034536267939695
lhand -27.075599518014407 22.614708141800662
lfingers 7.12502
lthumb -0.3365251446495864 52.68927860694826
rclavicle -1.951447689390611e-15 9.084213022012957e-16
rhumerus -26.33120529292825 -14.369980057017433 -79.54430598587035
rradius 25.895900403303067
rwrist 2.955473587206576
rhand -18.266809774720898 24.635030652319372
rfingers 7.12502
rthumb 7.814989041621822 -5.416672356867993
85
root -0.22584716472375105 17.724093766644565 35.69574690339584 0.44987833443386327 -5.605662338120503 -8.65119217309159
lfemur -23.035431460765217 -6.10219442214629 -6.829497962387695
ltibia 7.655639419918337
lfoot -4.5434367018159945 0.6055264810025334
ltoes -13.840892028493958
rfemur 6.353649621839651 7.526769189369301 36.4002656329769
rtibia 21.241558231442802
rfoot -7.213052391426574 -8.316984783970339
rtoes 5.674302573633469
lowerback 8.29283835236855 2.8383881528832324 8.089664142572305
upperback 0.4635349178035547 4.683765112288164 2.113883940110606
thorax -4.313838673704621 2.216031632863417 -2.5678688468470448
lowerneck -16.41944140568953 -2.851327760696288 -1.4815383257202104
upperneck 20.004143255469778 -3.608661220140651 0.5247331416647352
head 9.026677333751204 -1.7305468444205843 -0.036837241159337675
lclavicle -1.9585509256597457e-15 9.023700787864514e-16
lhumerus -35.77251247036432 3.12243492942423 81.737229970368
lradius 31.490744246116776
lwrist 6.23689400846907
lhand -27.06726704850592 22.4386032244692
lfingers 7.12502
lthumb -0.33129243521918555 52.60866828356285
rclavicle -1.9513411365465047e-15 9.08519567680252e-16
rhumerus -26.619770546326837 -14.804164720441506 -79.62428594145065
rradius 25.733296497165245
rwrist 3.208925425259657
rhand -18.248819941548778 24.628414418481672
rfingers 7.12502
rthumb 7.833958533746981 -5.503936646440044
